<?xml version="1.0" encoding="UTF-8" standalone="no"?>
<svg
   xml:space="preserve"
   width="387.45392"
   height="387.99429"
   data-id="lg_fjrtsik6plZb2d6J9r"
   data-version="1"
   viewBox="0 0 387.45393 387.9943"
   version="1.1"
   id="svg9"
   sodipodi:docname="yolo-epn-high-resolution-logo.svg"
   inkscape:version="1.3.2 (091e20e, 2023-11-25, custom)"
   xmlns:inkscape="http://www.inkscape.org/namespaces/inkscape"
   xmlns:sodipodi="http://sodipodi.sourceforge.net/DTD/sodipodi-0.dtd"
   xmlns="http://www.w3.org/2000/svg"
   xmlns:svg="http://www.w3.org/2000/svg"><defs
     id="defs9" /><sodipodi:namedview
     id="namedview9"
     pagecolor="#ffffff"
     bordercolor="#000000"
     borderopacity="0.25"
     inkscape:showpageshadow="2"
     inkscape:pageopacity="0.0"
     inkscape:pagecheckerboard="0"
     inkscape:deskcolor="#d1d1d1"
     inkscape:zoom="0.76650375"
     inkscape:cx="437.70171"
     inkscape:cy="248.53107"
     inkscape:window-width="1920"
     inkscape:window-height="1009"
     inkscape:window-x="-8"
     inkscape:window-y="-8"
     inkscape:window-maximized="1"
     inkscape:current-layer="svg9"><inkscape:page
       x="0"
       y="0"
       width="387.45392"
       height="387.99429"
       id="page9"
       margin="0 0 0"
       bleed="0"
       inkscape:export-filename="yolo-epn-LOGO.png"
       inkscape:export-xdpi="74.68708"
       inkscape:export-ydpi="74.68708" /></sodipodi:namedview><path
     fill="#f75d34"
     stroke="transparent"
     d="M 1.3046232,1.3046266 H 388.78808 V 387.15485 H 1.3046232 Z"
     id="path1"
     style="stroke-width:0.223242" /><rect
     width="1046.0259"
     height="245.9975"
     x="-458.18652"
     y="399.24341"
     fill="none"
     rx="0"
     ry="0"
     id="rect1"
     style="stroke-width:2.56114" /><g
     fill="none"
     stroke="#ffffff"
     stroke-width="3.5"
     paint-order="stroke"
     id="g7"
     transform="matrix(2.56114,0,0,2.56114,-1875.7898,-1794.3266)"><path
       d="m 808.893,749.597 a 56.556034,27.3565 0 1 0 0,54.713 56.555,27.356 0 1 0 0,-54.712 z"
       vector-effect="non-scaling-stroke"
       id="path3" /><path
       d="m 832.331,776.12 a 27.3565,56.556034 0 1 0 -54.713,0 27.3565,56.556034 0 1 0 54.713,0 z"
       vector-effect="non-scaling-stroke"
       id="path4" /><path
       d="m 826.103,757.643 a 56.283098,27.225025 45 1 0 -38.502,38.502 56.283098,27.225025 45 1 0 38.502,-38.502 z"
       vector-effect="non-scaling-stroke"
       id="path5" /><path
       d="m 823.45,793.507 a 27.225,56.283 45 1 0 -38.501,-38.5 27.225,56.283 45 1 0 38.501,38.5 z"
       vector-effect="non-scaling-stroke"
       id="path6" /><path
       d="m 808.101,753.767 3.024,11.229 a 11.49,11.49 0 0 0 8.1,8.1 l 11.228,3.024 -11.228,3.023 a 11.49,11.49 0 0 0 -8.1,8.1 l -3.024,11.229 -3.024,-11.23 a 11.49,11.49 0 0 0 -8.1,-8.1 l -11.226,-3.025 11.229,-3.024 a 11.49,11.49 0 0 0 8.1,-8.1 z"
       vector-effect="non-scaling-stroke"
       id="path7" /></g></svg>
