<?xml version="1.0" encoding="UTF-8" standalone="no"?>
<svg
   xml:space="preserve"
   width="2000"
   height="1500"
   data-id="lg_fjrtsik6plZb2d6J9r"
   data-version="1"
   viewBox="0 0 2000 1500"
   version="1.1"
   id="svg9"
   sodipodi:docname="yolo-epn-ALL.svg"
   inkscape:version="1.3.2 (091e20e, 2023-11-25, custom)"
   xmlns:inkscape="http://www.inkscape.org/namespaces/inkscape"
   xmlns:sodipodi="http://sodipodi.sourceforge.net/DTD/sodipodi-0.dtd"
   xmlns="http://www.w3.org/2000/svg"
   xmlns:svg="http://www.w3.org/2000/svg"><defs
     id="defs9" /><sodipodi:namedview
     id="namedview9"
     pagecolor="#ffffff"
     bordercolor="#000000"
     borderopacity="0.25"
     inkscape:showpageshadow="2"
     inkscape:pageopacity="0.0"
     inkscape:pagecheckerboard="0"
     inkscape:deskcolor="#d1d1d1"
     inkscape:zoom="0.542"
     inkscape:cx="999.07749"
     inkscape:cy="750"
     inkscape:window-width="1920"
     inkscape:window-height="1009"
     inkscape:window-x="-8"
     inkscape:window-y="-8"
     inkscape:window-maximized="1"
     inkscape:current-layer="svg9" /><path
     fill="#f75d34"
     stroke="transparent"
     d="M0 0h2000v1500H0z"
     id="path1" /><g
     transform="matrix(2.56114,0,0,2.56114,-1631.205,-1238.698)"
     id="g8"><rect
       width="408.422"
       height="96.050003"
       x="419.496"
       y="326.23199"
       fill="none"
       rx="0"
       ry="0"
       transform="translate(476.29,400.45)"
       id="rect1" /><path
       fill="#ffffff"
       d="m 951.207,739.207 h 23.12 l -1.62,2.46 q -9.09,14.11 -15.59,24.95 -6.51,10.84 -10.84,19.93 v 14.37 h -22.19 v -15.81 q -3.14,-6.38 -7.39,-13.14 -4.25,-6.75 -12.07,-18.57 -6.12,-9.01 -9.35,-14.19 h 23.8 q 2.55,5.18 8.33,15.38 5.78,10.37 7.9,14.62 2.98,-6.2 7.99,-15.21 5.87,-10.54 7.91,-14.79 m 51.26,62.56 q -14.53,0 -21.37,-6.68 -6.85,-6.67 -6.85,-17.55 0,-10.62 6.85,-17.25 6.84,-6.63 21.37,-6.63 9.78,0 16.37,3.18 6.58,3.19 9.73,8.59 3.14,5.4 3.14,12.11 0,10.97 -7.26,17.6 -7.27,6.63 -21.98,6.63 m 0.34,-14.45 q 5.53,0 8.25,-2.64 2.72,-2.63 2.72,-7.05 0,-4.17 -2.72,-6.85 -2.72,-2.67 -8.25,-2.67 -5.52,0 -8.07,2.63 -2.55,2.64 -2.55,6.89 0,4.42 2.55,7.05 2.55,2.64 8.07,2.64 m 51.09,-20.41 q -0.09,5.1 -0.09,15.64 0,12.66 0.17,18.36 h -20.06 l 0.09,-9.61 q 0.17,-15.81 0.17,-24.39 0,-8.16 -0.17,-23.12 l -0.09,-9.18 h 20.06 q -0.17,12.07 -0.17,19.72 0,8.5 0.09,12.58 m 30.51,34.86 q -14.53,0 -21.37,-6.68 -6.85,-6.67 -6.85,-17.55 0,-10.62 6.85,-17.25 6.84,-6.63 21.37,-6.63 9.78,0 16.37,3.18 6.58,3.19 9.73,8.59 3.14,5.4 3.14,12.11 0,10.97 -7.26,17.6 -7.27,6.63 -21.98,6.63 m 0.34,-14.45 q 5.53,0 8.25,-2.64 2.72,-2.63 2.72,-7.05 0,-4.17 -2.72,-6.85 -2.72,-2.67 -8.25,-2.67 -5.52,0 -8.07,2.63 -2.55,2.64 -2.55,6.89 0,4.42 2.55,7.05 2.55,2.64 8.07,2.64 m 64.43,-10.8 v 8.84 q 32.3,-0.17 46.84,-0.93 -0.6,3.48 -0.72,7.18 -0.13,3.7 -0.13,9.31 h -66.05 q 0.68,-16.49 0.68,-30.86 0,-14.36 -0.68,-30.85 h 66.05 v 15.38 h -45.99 v 8.16 q 4.08,0.09 12.07,0.09 13.52,0 27.97,-0.51 v 14.62 q -14.45,-0.51 -27.97,-0.51 -7.99,0 -12.07,0.08 m 87.04,-22.87 q 5.53,0 9.95,3.14 4.42,3.15 6.88,8.54 2.47,5.4 2.47,11.86 0,6.38 -2.47,12.03 -2.46,5.65 -6.92,9.09 -4.47,3.45 -10.16,3.45 -6.63,0 -11.35,-2.77 -4.72,-2.76 -7.01,-8.54 0,4.85 0.34,15.56 0.34,10.37 0.34,14.62 h -19.21 q 0.51,-15.81 0.51,-33.07 0,-17.25 -0.51,-33.06 h 16.32 l 2.46,10.62 q 2.38,-5.95 7.14,-8.71 4.76,-2.76 11.22,-2.76 m -9.09,32.81 q 3.82,0 6.42,-2.43 2.59,-2.42 2.59,-6.33 0,-4.33 -2.38,-7.05 -2.38,-2.72 -6.46,-2.72 -4.68,0 -7.06,2.25 -2.38,2.25 -2.38,7.52 0,2.98 1.53,4.97 1.53,2 3.66,2.89 2.12,0.9 4.08,0.9 m 82.87,14.45 h -19.12 q 0.51,-12.5 0.51,-23.04 0,-3.74 -1.83,-5.95 -1.83,-2.21 -4.63,-2.21 -2.81,0 -4.76,2.51 -1.96,2.51 -2.3,6.84 -0.17,6.46 -0.17,9.18 0,5.78 0.34,12.67 h -20.31 q 0.68,-12.24 0.68,-23.12 0,-10.88 -0.68,-23.29 5.61,0.25 8.58,0.25 3.15,0 8.59,-0.25 l 2.46,12.49 q 1.96,-6.8 6.12,-10.07 4.17,-3.27 9.69,-3.27 5.1,0 8.84,2.25 3.74,2.25 5.66,6.08 1.91,3.82 1.91,8.58 v 12.24 q 0,11.31 0.42,18.11"
       paint-order="stroke"
       id="path2" /><g
       fill="none"
       stroke="#ffffff"
       stroke-width="3.5"
       paint-order="stroke"
       id="g7"><path
         d="m 808.893,749.597 a 56.556034,27.3565 0 1 0 0,54.713 56.555,27.356 0 1 0 0,-54.712 z"
         vector-effect="non-scaling-stroke"
         id="path3" /><path
         d="m 832.331,776.12 a 27.3565,56.556034 0 1 0 -54.713,0 27.3565,56.556034 0 1 0 54.713,0 z"
         vector-effect="non-scaling-stroke"
         id="path4" /><path
         d="m 826.103,757.643 a 56.283053,27.225025 45 1 0 -38.502,38.502 56.283053,27.225025 45 1 0 38.502,-38.502 z"
         vector-effect="non-scaling-stroke"
         id="path5" /><path
         d="m 823.45,793.507 a 27.225,56.283 45 1 0 -38.501,-38.5 27.225,56.283 45 1 0 38.501,38.5 z"
         vector-effect="non-scaling-stroke"
         id="path6" /><path
         d="m 808.101,753.767 3.024,11.229 a 11.49,11.49 0 0 0 8.1,8.1 l 11.228,3.024 -11.228,3.023 a 11.49,11.49 0 0 0 -8.1,8.1 l -3.024,11.229 -3.024,-11.23 a 11.49,11.49 0 0 0 -8.1,-8.1 l -11.226,-3.025 11.229,-3.024 a 11.49,11.49 0 0 0 8.1,-8.1 z"
         vector-effect="non-scaling-stroke"
         id="path7" /></g></g></svg>
